<svg width="227" height="265" viewBox="0 0 227 265" fill="none" xmlns="http://www.w3.org/2000/svg">
<path d="M0.000778173 264.058L0 214.803L0.000778198 63.0582V54H47.9992V63.0582V214.803L48 264.058H0.000778173Z" fill="black"/>
<path d="M150.188 53.0586C164.277 53.0586 176.213 55.1585 185.996 59.3584C195.78 63.3584 203.118 69.2586 208.01 77.0586C213.097 84.6585 215.641 93.8584 215.641 104.658C215.641 116.658 212.706 126.759 206.836 134.959C202.766 140.84 197.337 145.33 190.551 148.434C195.925 150.413 200.766 153.021 205.074 156.259C211.923 161.259 217.206 167.459 220.924 174.858C224.642 182.058 226.501 190.259 226.501 199.459C226.501 210.059 224.74 219.359 221.218 227.358C217.696 235.158 212.608 241.758 205.955 247.158C199.302 252.558 191.475 256.558 182.475 259.158C173.669 261.758 163.886 263.059 153.124 263.059H59.4941V137.358H143.145C148.232 137.358 152.537 136.559 156.059 134.959C159.776 133.159 162.516 130.759 164.277 127.759C166.234 124.559 167.212 120.758 167.212 116.358C167.212 109.958 165.06 104.958 160.755 101.358C156.45 97.5584 149.992 95.6582 141.383 95.6582H59.4941V53.0586H150.188ZM102 180.059C101 180.059 96.8992 180.559 95 182.559C93.1008 184.559 93 188.265 93 190.559V236.059L105.014 222.963C105.961 221.931 107.297 221.343 108.698 221.343H148.205C153.615 221.343 158.156 220.518 161.827 218.866C165.691 217.215 168.686 214.829 170.812 211.71C172.937 208.407 174 204.462 174 199.875C174 195.655 172.841 192.077 170.522 189.142C168.397 186.206 165.305 184.004 161.248 182.536C157.19 180.885 152.359 180.059 146.756 180.059H102Z" fill="black"/>
<rect width="49" height="44" fill="#E82C33"/>
<rect x="59" width="48" height="44" fill="#F4A924"/>
<rect x="117" width="49" height="44" fill="#49A026"/>
</svg>
